<svg xmlns="http://www.w3.org/2000/svg" class="sallySection__VideoTitleLogo-sc-1vhop6l-2 gxXhLA" fill="none" height="42" viewBox="0 0 306 42" width="306"><path d="M195.693 10.3174H197.815V6.35221H202.364V4.69454H197.815V2.6125H202.656V0.954834H195.693V10.3174Z" fill="white"></path><path d="M203.772 6.85614C203.772 9.40233 205.615 10.5428 207.883 10.5428C210.151 10.5428 211.994 9.40233 211.994 6.85614V0.954834H209.872V6.85614C209.872 8.26185 208.997 8.88513 207.883 8.88513C206.769 8.88513 205.894 8.26185 205.894 6.85614V0.954834H203.772V6.85614Z" fill="white"></path><path d="M215.843 10.3174H217.965V2.6125H220.856V0.954834H212.952V2.6125H215.843V10.3174Z" fill="white"></path><path d="M221.812 6.85614C221.812 9.40233 223.655 10.5428 225.923 10.5428C228.191 10.5428 230.034 9.40233 230.034 6.85614V0.954834H227.912V6.85614C227.912 8.26185 227.037 8.88513 225.923 8.88513C224.809 8.88513 223.934 8.26185 223.934 6.85614V0.954834H221.812V6.85614Z" fill="white"></path><path d="M231.735 10.3174H233.79V6.52461H236.297C237.013 6.52461 237.331 7.08159 237.331 7.7977V9.09731C237.331 9.41559 237.358 9.97256 237.689 10.3174H239.944C239.493 9.83995 239.4 9.33602 239.4 8.84535V7.3866C239.4 6.27264 238.816 5.83502 237.941 5.59631C238.445 5.50348 239.4 4.95977 239.4 3.40819C239.4 1.69747 237.848 0.954834 236.204 0.954834H231.735V10.3174ZM233.79 4.86694V2.6125H236.018C236.787 2.6125 237.344 2.94404 237.344 3.67341C237.344 4.52214 236.774 4.86694 236.005 4.86694H233.79Z" fill="white"></path><path d="M241.059 10.3174H248.101V8.65969H243.181V6.35221H247.822V4.69454H243.181V2.6125H248.008V0.954834H241.059V10.3174Z" fill="white"></path><path d="M195.693 25.4657H197.616V18.2117L199.884 25.4657H202.244L204.512 18.2117V25.4657H206.435V16.1031H203.358L201.064 23.4101L198.77 16.1031H195.693V25.4657Z" fill="white"></path><path d="M207.288 25.4657H209.476L210.404 22.946H214.104L215.046 25.4657H217.234L213.454 16.1031H211.067L207.288 25.4657ZM211.001 21.3546L212.261 17.973L213.52 21.3546H211.001Z" fill="white"></path><path d="M218.085 25.4657H219.941V18.1852L224.039 25.4657H226.851V16.1031H224.994V23.4234L220.883 16.1031H218.085V25.4657Z" fill="white"></path><path d="M228.653 25.4657H230.774V16.1031H228.653V25.4657Z" fill="white"></path><path d="M232.577 25.4657H234.698V21.5005H239.247V19.8428H234.698V17.7608H239.539V16.1031H232.577V25.4657Z" fill="white"></path><path d="M240.761 25.4657H247.803V23.808H242.883V21.5005H247.525V19.8428H242.883V17.7608H247.71V16.1031H240.761V25.4657Z" fill="white"></path><path d="M248.596 22.5084C249.113 24.7628 250.704 25.6911 252.839 25.6911C255.492 25.6911 256.95 24.3119 256.95 22.5879C256.95 20.6518 254.988 20.1744 254.046 19.9754L252.189 19.5776C251.712 19.4715 251.009 19.3124 251.009 18.636C251.009 17.9067 251.765 17.5354 252.786 17.5354C253.821 17.5354 254.537 18.0923 254.669 19.14L256.698 18.6891C256.446 17.3762 255.558 15.8777 252.786 15.8777C250.81 15.8777 248.927 16.859 248.927 18.636C248.927 20.7313 250.465 21.0629 251.951 21.3679L253.423 21.6729C254.285 21.8586 254.802 22.0973 254.802 22.7869C254.802 23.4101 254.059 24.0334 252.906 24.0334C251.593 24.0334 250.704 23.3836 250.704 22.0442L248.596 22.5084Z" fill="white"></path><path d="M260.212 25.4657H262.333V17.7608H265.224V16.1031H257.321V17.7608H260.212V25.4657Z" fill="white"></path><path d="M264.27 25.4657H266.458L267.386 22.946H271.086L272.028 25.4657H274.216L270.437 16.1031H268.05L264.27 25.4657ZM267.983 21.3546L269.243 17.973L270.503 21.3546H267.983Z" fill="white"></path><path d="M276.154 25.4657H278.276V17.7608H281.166V16.1031H273.263V17.7608H276.154V25.4657Z" fill="white"></path><path d="M282.229 25.4657H284.351V16.1031H282.229V25.4657Z" fill="white"></path><path d="M290.649 24.0334C288.699 24.0334 287.85 22.4288 287.85 20.8109C287.85 19.193 288.699 17.5354 290.649 17.5354C292.558 17.5354 293.407 19.193 293.407 20.8109C293.407 22.4288 292.558 24.0334 290.649 24.0334ZM290.649 25.6911C294.03 25.6911 295.529 23.2643 295.529 20.8109C295.529 18.3708 294.03 15.8777 290.649 15.8777C287.227 15.8777 285.729 18.3708 285.729 20.8109C285.729 23.2643 287.227 25.6911 290.649 25.6911Z" fill="white"></path><path d="M296.902 25.4657H298.759V18.1852L302.856 25.4657H305.668V16.1031H303.811V23.4234L299.7 16.1031H296.902V25.4657Z" fill="white"></path><path d="M195.693 40.614H202.47V38.9563H197.815V31.2515H195.693V40.614Z" fill="white"></path><path d="M203.208 40.614H205.396L206.325 38.0943H210.025L210.966 40.614H213.154L209.375 31.2515H206.988L203.208 40.614ZM206.921 36.503L208.181 33.1213L209.441 36.503H206.921Z" fill="white"></path><path d="M214.005 40.614H218.143C220.45 40.614 222.161 39.8183 222.161 37.7893C222.161 36.8212 221.432 35.7603 220.132 35.694C220.888 35.5879 221.777 34.8055 221.777 33.8109C221.777 32.4582 220.822 31.2515 218.713 31.2515H214.005V40.614ZM216.127 38.9563V36.6223H218.594C219.323 36.6223 220.039 36.861 220.039 37.7495C220.039 38.6911 219.217 38.9563 218.302 38.9563H216.127ZM216.127 34.9646V32.9091H218.421C219.177 32.9091 219.642 33.2539 219.642 33.9303C219.642 34.5535 219.124 34.9646 218.262 34.9646H216.127Z" fill="white"></path><path d="M0 28.0872C2.18361 37.6368 8.90243 41.569 17.9168 41.569C29.1148 41.569 35.2738 35.7269 35.2738 28.4242C35.2738 20.2228 26.9872 18.2005 23.0119 17.3579L15.1733 15.6726C13.1577 15.2232 10.1902 14.5492 10.1902 11.6843C10.1902 8.59467 13.3816 7.02179 17.6929 7.02179C22.0601 7.02179 25.0836 9.38111 25.6435 13.8189L34.2099 11.909C33.1461 6.3477 29.3948 0 17.6929 0C9.35035 0 1.39975 4.1569 1.39975 11.6843C1.39975 20.5598 7.8946 21.9642 14.1655 23.2562L20.3804 24.5482C24.0198 25.3346 26.2034 26.3458 26.2034 29.2668C26.2034 31.907 23.0679 34.5472 18.1968 34.5472C12.6538 34.5472 8.90243 31.7947 8.90243 26.1211L0 28.0872Z" fill="white"></path><path d="M34.3203 40.6139H43.5587L47.478 29.9408H63.0992L67.0745 40.6139H76.3129L60.3557 0.954834H50.2775L34.3203 40.6139ZM49.9975 23.1999L55.3166 8.87542L60.6357 23.1999H49.9975Z" fill="white"></path><path d="M144.975 40.6139H153.653V22.6381L169.89 0.954834H159.756L149.342 16.1219L138.872 0.954834H128.514L144.975 22.6381V40.6139Z" fill="white"></path><path d="M78.7207 40.6139H107.332V33.5921H87.6791V0.954834H78.7207V40.6139Z" fill="white"></path><path d="M110.342 40.6139H138.953V33.5921H119.3V0.954834H110.342V40.6139Z" fill="white"></path><path clip-rule="evenodd" d="M185.705 40.6139V0.954834H187.926V40.6139H185.705Z" fill="white" fill-rule="evenodd"></path></svg>