<svg viewBox="0 0 133 16" fill="none" xmlns="http://www.w3.org/2000/svg" class="css-1rowuzd"><g clip-path="url(#clip0_4470_513)" class="css-0"><path d="M121.788 0.126587V2.71358H125.945V15.6345H128.829V2.71358H133V0.126587H121.788Z" fill="#fff" class="css-0"></path><path d="M0.216656 13.638L0 13.4412L1.70617 11.5291L1.89574 11.3182L2.1124 11.501C3.30923 12.4154 4.75649 12.908 6.24241 12.9069C6.9542 12.9469 7.66131 12.7657 8.27357 12.3867C8.48319 12.2546 8.65673 12.069 8.77762 11.8474C8.89852 11.6259 8.96274 11.3759 8.96416 11.1213C8.96416 10.1934 8.49023 9.57477 7.23091 9.392L5.2133 9.13892C2.47801 8.77337 0.92079 6.9456 0.934331 4.65386C0.91051 4.02513 1.01937 3.3986 1.25327 2.81814C1.48718 2.23769 1.84048 1.71735 2.28843 1.29358C3.38574 0.379243 4.76994 -0.0814686 6.17471 8.07671e-05C7.98442 0.0187155 9.75117 0.574898 11.2661 1.60289L11.5099 1.75755L9.91203 4.09147L9.66829 3.95087C8.58948 3.23881 7.34432 2.84512 6.06638 2.81203C5.49409 2.79047 4.92994 2.95783 4.455 3.29006C4.24282 3.44918 4.07309 3.66169 3.96176 3.90764C3.85043 4.15359 3.80116 4.42488 3.81857 4.69604C3.81857 5.38497 4.27897 6.10201 5.72786 6.31291C6.13409 6.31291 6.70281 6.46757 7.43402 6.55193C8.60042 6.56652 9.71509 7.0541 10.5399 7.91053C11.3647 8.76696 11.8343 9.92432 11.8484 11.1354C11.8692 11.7924 11.7387 12.4451 11.4679 13.0393C11.1971 13.6335 10.7937 14.152 10.2912 14.5519C9.10236 15.4087 7.67429 15.8337 6.22887 15.7611C4.04538 15.8185 1.9137 15.0658 0.216656 13.638Z" fill="#fff" class="css-0"></path><path d="M98.6191 0.126587V0.407782V15.6345H101.517V0.126587H98.6191Z" fill="#fff" class="css-0"></path><path d="M90.8605 0.126587L87.5971 10.8542L84.3337 0.126587H81.2734L86.4867 15.6345H88.7075L93.9072 0.126587H90.8605Z" fill="#fff" class="css-0"></path><path d="M78.1182 13.3146H78.389V15.9719H78.0911C77.0666 15.9588 76.0774 15.5817 75.2881 14.9033C74.3597 15.4653 73.3025 15.7568 72.2279 15.7469C71.2291 15.7726 70.2412 15.5266 69.3623 15.0333C68.4834 14.54 67.7441 13.8167 67.2177 12.935C66.9263 12.4728 66.7367 11.9495 66.6625 11.4025C66.5308 10.2361 66.481 9.06136 66.5135 7.88752C66.4814 6.71835 66.5311 5.5483 66.6625 4.38664C66.7226 3.82727 66.9031 3.2891 67.1906 2.81194C67.7336 1.95038 68.4748 1.24281 69.3471 0.753099C70.2195 0.263388 71.1956 0.00695801 72.1872 0.00695801C73.1789 0.00695801 74.155 0.263388 75.0273 0.753099C75.8997 1.24281 76.6408 1.95038 77.1839 2.81194C77.4705 3.27534 77.6554 3.79855 77.7255 4.34446C77.8569 5.50612 77.9067 6.67617 77.8745 7.84534C77.907 9.01918 77.8572 10.1939 77.7255 11.3603C77.6593 11.9159 77.4742 12.4491 77.1839 12.9209L77.1026 13.0615C77.4123 13.1999 77.7416 13.2853 78.0776 13.3146H78.1182ZM72.1602 12.9209C72.4852 12.9359 72.8104 12.8931 73.1216 12.7944C72.7695 12.3913 72.3903 11.9227 71.9841 11.3884C71.3347 10.574 70.4276 10.0258 69.4249 9.84182C69.3975 10.2148 69.4421 10.5898 69.556 10.9446C69.67 11.2995 69.8509 11.6273 70.0884 11.9086C70.3485 12.2246 70.6729 12.4767 71.0382 12.6469C71.4034 12.8171 71.8005 12.9011 72.2008 12.8928L72.1602 12.9209ZM72.2008 2.81194C71.8005 2.80367 71.4034 2.88765 71.0382 3.05783C70.6729 3.22801 70.3485 3.48016 70.0884 3.79613C69.8271 4.08305 69.6447 4.43748 69.5603 4.82249C69.424 5.54938 69.365 6.28961 69.3842 7.02987C71.2012 7.26807 72.8696 8.19429 74.0694 9.63092C74.3673 10.0105 74.6382 10.3761 74.8954 10.7276C75.0114 9.79539 75.0567 8.85519 75.0308 7.91564C75.07 6.93764 75.0156 5.95803 74.8684 4.99121C74.7945 4.57044 74.6066 4.18027 74.3267 3.86643C74.0717 3.53575 73.7481 3.26916 73.38 3.08656C73.0118 2.90397 72.6087 2.81009 72.2008 2.81194Z" fill="#fff" class="css-0"></path><path d="M55.8837 15.6344H50.4673V0.126528H56.0733C57.0381 0.0993045 57.9932 0.332428 58.8452 0.803117C59.6973 1.27381 60.4171 1.96596 60.9345 2.81194C61.2963 3.38184 61.5406 4.02328 61.6522 4.69595C61.7656 5.76016 61.8064 6.83138 61.774 7.90157C61.8033 9.02056 61.7398 10.1401 61.5845 11.2478C61.5069 11.888 61.2842 12.5 60.9345 13.0334C60.3816 13.8671 59.6351 14.5426 58.7641 14.9972C57.8931 15.4519 56.9257 15.671 55.9514 15.6344H55.8837ZM55.7754 12.9209C56.2643 12.9687 56.7569 12.8867 57.207 12.6825C57.657 12.4784 58.0497 12.1589 58.3482 11.7539C58.5861 11.4308 58.7358 11.0472 58.7815 10.6432C58.8726 9.75612 58.9042 8.86353 58.8763 7.97187C58.9061 7.05646 58.8699 6.14002 58.7679 5.23022C58.7018 4.76929 58.5144 4.33627 58.2263 3.9789C57.9515 3.57907 57.5807 3.26094 57.1506 3.0562C56.7206 2.85146 56.2465 2.76725 55.7754 2.81194H53.3109V12.9209H55.7754Z" fill="#fff" class="css-0"></path><path d="M42.1259 0.126587V10.109L35.6533 0.126587H33.0264V0.407782V15.6345H35.9106V5.65207L42.3832 15.6345H45.0102V0.126587H42.1259Z" fill="#fff" class="css-0"></path><path d="M22.0046 4.33035L23.8191 9.71524H20.1901L22.0046 4.33035ZM20.84 0.112427L15.0986 15.5782H18.1589L19.337 12.246H24.6721L25.8502 15.5782H28.9105L23.1691 0.126487L20.84 0.112427Z" fill="#fff" class="css-0"></path><path d="M106.283 13.638L106.053 13.4411L107.773 11.529L107.949 11.3181L108.166 11.5009C109.365 12.4109 110.81 12.9031 112.296 12.9068C113.012 12.947 113.723 12.766 114.34 12.3866C114.553 12.2593 114.728 12.0743 114.848 11.8514C114.967 11.6285 115.026 11.3761 115.017 11.1213C115.017 10.1933 114.543 9.57468 113.284 9.39191L111.28 9.11071C108.531 8.77328 106.974 6.94551 106.974 4.65377C106.954 4.02552 107.064 3.40014 107.298 2.82025C107.532 2.24037 107.883 1.71962 108.328 1.29349C109.434 0.376087 110.828 -0.084574 112.241 -8.9379e-06C114.051 0.0186258 115.818 0.574808 117.333 1.6028L117.577 1.75746L115.965 4.09138L115.735 3.95078C114.655 3.24066 113.411 2.84714 112.133 2.81194C111.556 2.78737 110.987 2.95486 110.508 3.28997C110.299 3.45068 110.131 3.66389 110.023 3.90973C109.914 4.15558 109.866 4.42605 109.885 4.69595C109.885 5.38488 110.346 6.10192 111.795 6.31282C112.187 6.31282 112.77 6.46748 113.487 6.55184C114.654 6.56643 115.768 7.05402 116.593 7.91044C117.418 8.76687 117.888 9.92424 117.902 11.1353C117.924 11.7911 117.796 12.4431 117.527 13.0372C117.259 13.6313 116.858 14.1505 116.358 14.5518C115.168 15.4067 113.741 15.8315 112.296 15.761C110.112 15.8196 107.98 15.0668 106.283 13.638Z" fill="#fff" class="css-0"></path></g></svg>