<svg xmlns="http://www.w3.org/2000/svg" xmlns:xlink="http://www.w3.org/1999/xlink" viewBox="0 0 567 1008" width="567" height="1008" preserveAspectRatio="xMidYMid meet" style="width: 100%; height: 100%; transform: translate3d(0px, 0px, 0px); content-visibility: visible;"><defs><clipPath id="__lottie_element_2"><rect width="567" height="1008" x="0" y="0"></rect></clipPath><linearGradient id="__lottie_element_6" spreadMethod="pad" gradientUnits="userSpaceOnUse" x1="143.8121795654297" y1="-0.7479366660118103" x2="-57.76533508300781" y2="-19.484758377075195"><stop offset="0%" stop-color="rgb(225,198,161)"></stop><stop offset="39%" stop-color="rgb(148,121,129)"></stop><stop offset="77%" stop-color="rgb(70,44,98)"></stop><stop offset="89%" stop-color="rgb(35,22,49)"></stop><stop offset="100%" stop-color="rgb(0,0,0)"></stop><stop offset="100%" stop-color="rgb(0,0,0)"></stop><stop offset="100%" stop-color="rgb(0,0,0)"></stop></linearGradient><mask id="__lottie_element_8"><path fill="url(#__lottie_element_7)" d=" M-126,31.5 C-126,31.5 126,31.5 126,31.5 C126,31.5 126,-31.5 126,-31.5 C126,-31.5 -126,-31.5 -126,-31.5 C-126,-31.5 -126,31.5 -126,31.5z"></path></mask><linearGradient id="__lottie_element_7" spreadMethod="pad" gradientUnits="userSpaceOnUse" x1="143.8121795654297" y1="-0.7479366660118103" x2="-57.76533508300781" y2="-19.484758377075195"><stop stop-color="rgb(255,255,255)" offset="0%" stop-opacity="0"></stop><stop stop-color="rgb(255,255,255)" offset="50%" stop-opacity="0.5"></stop><stop stop-color="rgb(255,255,255)" offset="100%" stop-opacity="1"></stop></linearGradient><linearGradient id="__lottie_element_9" spreadMethod="pad" gradientUnits="userSpaceOnUse" x1="137.42050170898438" y1="-354.1694641113281" x2="104.6619644165039" y2="147.11123657226562"><stop offset="0%" stop-color="rgb(242,230,213)"></stop><stop offset="45%" stop-color="rgb(137,125,128)"></stop><stop offset="90%" stop-color="rgb(31,20,44)"></stop><stop offset="95%" stop-color="rgb(16,10,22)"></stop><stop offset="100%" stop-color="rgb(0,0,0)"></stop><stop offset="100%" stop-color="rgb(0,0,0)"></stop><stop offset="100%" stop-color="rgb(0,0,0)"></stop></linearGradient><mask id="__lottie_element_11"><path fill="#fff" d=" M31.5,-440.95001220703125 C31.5,-440.95001220703125 -94.5,440.95001220703125 -94.5,440.95001220703125 C-94.5,440.95001220703125 -31.5,440.95001220703125 -31.5,440.95001220703125 C-31.5,440.95001220703125 94.5,-440.95001220703125 94.5,-440.95001220703125 C94.5,-440.95001220703125 31.5,-440.95001220703125 31.5,-440.95001220703125z"></path></mask><linearGradient id="__lottie_element_10" spreadMethod="pad" gradientUnits="userSpaceOnUse" x1="137.42050170898438" y1="-354.1694641113281" x2="104.6619644165039" y2="147.11123657226562"><stop stop-color="rgb(255,255,255)" offset="0%" stop-opacity="0"></stop><stop stop-color="rgb(255,255,255)" offset="50%" stop-opacity="0.5000059008598328"></stop><stop stop-color="rgb(255,255,255)" offset="100%" stop-opacity="1"></stop></linearGradient><linearGradient id="__lottie_element_12" spreadMethod="pad" gradientUnits="userSpaceOnUse" x1="109.33045959472656" y1="-1847.66162109375" x2="187.74623107910156" y2="-74.90692138671875"><stop offset="0%" stop-color="rgb(220,189,145)"></stop><stop offset="37%" stop-color="rgb(151,120,130)"></stop><stop offset="74%" stop-color="rgb(82,51,115)"></stop><stop offset="87%" stop-color="rgb(41,26,57)"></stop><stop offset="100%" stop-color="rgb(0,0,0)"></stop><stop offset="100%" stop-color="rgb(0,0,0)"></stop><stop offset="100%" stop-color="rgb(0,0,0)"></stop></linearGradient><mask id="__lottie_element_14"><path fill="url(#__lottie_element_13)" d=" M-47.25,503.95001220703125 C-47.25,503.95001220703125 -15.75,503.95001220703125 -15.75,503.95001220703125 C19.049999237060547,503.95001220703125 47.25,475.75 47.25,440.95001220703125 C47.25,440.95001220703125 47.25,-440.95001220703125 47.25,-440.95001220703125 C47.25,-475.75 19.049999237060547,-503.95001220703125 -15.75,-503.95001220703125 C-15.75,-503.95001220703125 -47.25,-503.95001220703125 -47.25,-503.95001220703125 C-47.25,-503.95001220703125 -47.25,-440.95001220703125 -47.25,-440.95001220703125 C-47.25,-440.95001220703125 -26.25,-440.95001220703125 -26.25,-440.95001220703125 C-20.450000762939453,-440.95001220703125 -15.75,-436.25 -15.75,-430.45001220703125 C-15.75,-430.45001220703125 -15.75,430.45001220703125 -15.75,430.45001220703125 C-15.75,436.25 -20.450000762939453,440.95001220703125 -26.25,440.95001220703125 C-26.25,440.95001220703125 -47.25,440.95001220703125 -47.25,440.95001220703125 C-47.25,440.95001220703125 -47.25,503.95001220703125 -47.25,503.95001220703125z"></path></mask><linearGradient id="__lottie_element_13" spreadMethod="pad" gradientUnits="userSpaceOnUse" x1="109.33045959472656" y1="-1847.66162109375" x2="187.74623107910156" y2="-74.90692138671875"><stop stop-color="rgb(255,255,255)" offset="0%" stop-opacity="0"></stop><stop stop-color="rgb(255,255,255)" offset="50%" stop-opacity="0.5"></stop><stop stop-color="rgb(255,255,255)" offset="100%" stop-opacity="1"></stop></linearGradient><linearGradient id="__lottie_element_15" spreadMethod="pad" gradientUnits="userSpaceOnUse" x1="175.62701416015625" y1="428.7393798828125" x2="-83.91954040527344" y2="37.142398834228516"><stop offset="0%" stop-color="rgb(255,255,255)"></stop><stop offset="41%" stop-color="rgb(148,137,141)"></stop><stop offset="81%" stop-color="rgb(42,19,27)"></stop><stop offset="87%" stop-color="rgb(21,9,14)"></stop><stop offset="94%" stop-color="rgb(0,0,0)"></stop></linearGradient><mask id="__lottie_element_17"><path fill="url(#__lottie_element_16)" d=" M15.75,-503.95001220703125 C15.75,-503.95001220703125 47.25,-503.95001220703125 47.25,-503.95001220703125 C47.25,-503.95001220703125 47.25,-440.95001220703125 47.25,-440.95001220703125 C47.25,-440.95001220703125 26.25,-440.95001220703125 26.25,-440.95001220703125 C20.450000762939453,-440.95001220703125 15.75,-436.25 15.75,-430.45001220703125 C15.75,-430.45001220703125 15.75,430.45001220703125 15.75,430.45001220703125 C15.75,436.25 20.450000762939453,440.95001220703125 26.25,440.95001220703125 C26.25,440.95001220703125 47.25,440.95001220703125 47.25,440.95001220703125 C47.25,440.95001220703125 47.25,503.95001220703125 47.25,503.95001220703125 C47.25,503.95001220703125 15.75,503.95001220703125 15.75,503.95001220703125 C-19.049999237060547,503.95001220703125 -47.25,475.75 -47.25,440.95001220703125 C-47.25,440.95001220703125 -47.25,-440.95001220703125 -47.25,-440.95001220703125 C-47.25,-475.75 -19.049999237060547,-503.95001220703125 15.75,-503.95001220703125z"></path></mask><linearGradient id="__lottie_element_16" spreadMethod="pad" gradientUnits="userSpaceOnUse" x1="175.62701416015625" y1="428.7393798828125" x2="-83.91954040527344" y2="37.142398834228516"><stop stop-color="rgb(255,255,255)" offset="0%" stop-opacity="0"></stop><stop stop-color="rgb(255,255,255)" offset="50%" stop-opacity="0.5000056028366089"></stop><stop stop-color="rgb(255,255,255)" offset="100%" stop-opacity="1"></stop></linearGradient></defs><g clip-path="url(#__lottie_element_2)"><g transform="matrix(1,0,0,1,0,0)" opacity="1" style="display: block;"><g opacity="1" transform="matrix(1,0,0,1,126,31.5)"><path fill="#fff" mask="url(#__lottie_element_8)" fill-opacity="1" d="M0 0 M-126,31.5 C-126,31.5 126,31.5 126,31.5 C126,31.5 126,-31.5 126,-31.5 C126,-31.5 -126,-31.5 -126,-31.5 C-126,-31.5 -126,31.5 -126,31.5z"></path></g><g opacity="1" transform="matrix(1,0,0,1,157.5,566.9500122070312)"><path fill="#fff" mask="url(#__lottie_element_11)" fill-opacity="1" d="M0 0 M31.5,-440.95001220703125 C31.5,-440.95001220703125 -94.5,440.95001220703125 -94.5,440.95001220703125 C-94.5,440.95001220703125 -31.5,440.95001220703125 -31.5,440.95001220703125 C-31.5,440.95001220703125 94.5,-440.95001220703125 94.5,-440.95001220703125 C94.5,-440.95001220703125 31.5,-440.95001220703125 31.5,-440.95001220703125z"></path></g><g opacity="1" transform="matrix(1,0,0,1,519.6500244140625,503.95001220703125)"><path fill="#fff" mask="url(#__lottie_element_14)" fill-opacity="1" d="M0 0 M-47.25,503.95001220703125 C-47.25,503.95001220703125 -15.75,503.95001220703125 -15.75,503.95001220703125 C19.049999237060547,503.95001220703125 47.25,475.75 47.25,440.95001220703125 C47.25,440.95001220703125 47.25,-440.95001220703125 47.25,-440.95001220703125 C47.25,-475.75 19.049999237060547,-503.95001220703125 -15.75,-503.95001220703125 C-15.75,-503.95001220703125 -47.25,-503.95001220703125 -47.25,-503.95001220703125 C-47.25,-503.95001220703125 -47.25,-440.95001220703125 -47.25,-440.95001220703125 C-47.25,-440.95001220703125 -26.25,-440.95001220703125 -26.25,-440.95001220703125 C-20.450000762939453,-440.95001220703125 -15.75,-436.25 -15.75,-430.45001220703125 C-15.75,-430.45001220703125 -15.75,430.45001220703125 -15.75,430.45001220703125 C-15.75,436.25 -20.450000762939453,440.95001220703125 -26.25,440.95001220703125 C-26.25,440.95001220703125 -47.25,440.95001220703125 -47.25,440.95001220703125 C-47.25,440.95001220703125 -47.25,503.95001220703125 -47.25,503.95001220703125z"></path></g><g opacity="1" transform="matrix(1,0,0,1,362.25,503.95001220703125)"><path fill="#fff" mask="url(#__lottie_element_17)" fill-opacity="1" d="M0 0 M15.75,-503.95001220703125 C15.75,-503.95001220703125 47.25,-503.95001220703125 47.25,-503.95001220703125 C47.25,-503.95001220703125 47.25,-440.95001220703125 47.25,-440.95001220703125 C47.25,-440.95001220703125 26.25,-440.95001220703125 26.25,-440.95001220703125 C20.450000762939453,-440.95001220703125 15.75,-436.25 15.75,-430.45001220703125 C15.75,-430.45001220703125 15.75,430.45001220703125 15.75,430.45001220703125 C15.75,436.25 20.450000762939453,440.95001220703125 26.25,440.95001220703125 C26.25,440.95001220703125 47.25,440.95001220703125 47.25,440.95001220703125 C47.25,440.95001220703125 47.25,503.95001220703125 47.25,503.95001220703125 C47.25,503.95001220703125 15.75,503.95001220703125 15.75,503.95001220703125 C-19.049999237060547,503.95001220703125 -47.25,475.75 -47.25,440.95001220703125 C-47.25,440.95001220703125 -47.25,-440.95001220703125 -47.25,-440.95001220703125 C-47.25,-475.75 -19.049999237060547,-503.95001220703125 15.75,-503.95001220703125z"></path></g></g></g></svg>