<svg xmlns="http://www.w3.org/2000/svg" viewBox="0 0 283.46 55.16"><defs><style>.cls-1{fill:#231f20;}</style></defs><title>Stadium-Logo-black</title><g id="Layer_2" data-name="Layer 2"><g id="Artwork"><path class="cls-1" d="M282.57,4.6a3.7,3.7,0,1,1-3.7-3.7A3.7,3.7,0,0,1,282.57,4.6ZM278.87,0a4.6,4.6,0,1,0,4.6,4.6A4.6,4.6,0,0,0,278.87,0Z"/><path class="cls-1" d="M277,2.18h2.44a1.24,1.24,0,0,1,1.32,1.25A1.12,1.12,0,0,1,280,4.57h0c.49.13.63.6.66,1.06a2.45,2.45,0,0,0,.19,1.07h-1a5.22,5.22,0,0,1-.16-1.08c-.07-.48-.25-.68-.75-.68h-1V6.71h-1Zm1,2h1.09c.44,0,.69-.19.69-.65s-.24-.63-.69-.63H278Z"/><path class="cls-1" d="M177.74,12.26V45.15a3.06,3.06,0,0,0,.41,1.53l4,7a3.06,3.06,0,0,0,2.65,1.53h16.32a3.05,3.05,0,0,0,1.53-.41l6.1-3.52a.76.76,0,0,1,.38-.1.77.77,0,0,1,.77.77V54a1.15,1.15,0,0,0,1.15,1.15H218A1.15,1.15,0,0,0,219.11,54V13.41A1.15,1.15,0,0,0,218,12.26h-6.9a1.15,1.15,0,0,0-1.15,1.15V44.82A1.15,1.15,0,0,1,208.77,46H188.08a1.15,1.15,0,0,1-1.15-1.15V13.41a1.15,1.15,0,0,0-1.15-1.15Z"/><path class="cls-1" d="M165.1,55.16A1.15,1.15,0,0,1,163.95,54V12.26h9.19V54A1.15,1.15,0,0,1,172,55.16ZM163.95,0V8.43h9.19V1.15A1.15,1.15,0,0,0,172,0Z"/><path class="cls-1" d="M55.93,54a1.15,1.15,0,0,1-1.15,1.15H47.88A1.15,1.15,0,0,1,46.73,54V1.15A1.15,1.15,0,0,1,47.88,0h6.89a1.15,1.15,0,0,1,1.15,1.15V12.26h7.66v9.19H55.93Z"/><path class="cls-1" d="M159.35,0V54a1.15,1.15,0,0,1-1.15,1.15h-6.89A1.15,1.15,0,0,1,150.16,54V51.89a.77.77,0,0,0-1.15-.66l-6.1,3.52a3.05,3.05,0,0,1-1.53.41H114.54A1.15,1.15,0,0,1,113.39,54V21.69A3.06,3.06,0,0,1,114.92,19l11-6.37a3,3,0,0,1,1.53-.41h22.68V1.15A1.15,1.15,0,0,1,151.31,0ZM122.58,44.82A1.15,1.15,0,0,0,123.73,46H149a1.15,1.15,0,0,0,1.15-1.15V16.65A.77.77,0,0,0,149,16L140.25,21a3.05,3.05,0,0,1-1.53.41h-15a1.15,1.15,0,0,0-1.15,1.15Z"/><path class="cls-1" d="M98.45,46a1.15,1.15,0,0,0,1.15-1.15V29.73a.77.77,0,0,0-.77-.77.76.76,0,0,0-.38.1L71.65,44.54A.77.77,0,0,0,72,46Zm10.34,8a1.15,1.15,0,0,1-1.15,1.15h-6.89A1.15,1.15,0,0,1,99.6,54V51.89a.77.77,0,0,0-.77-.77.76.76,0,0,0-.38.1l-6.1,3.52a3.05,3.05,0,0,1-1.53.41H66a3.07,3.07,0,0,1-3-2.27l-2.63-9.83a3.06,3.06,0,0,1,1.43-3.45l29-16.73a.77.77,0,0,0-.38-1.43h-23V12.26h31.7a3.06,3.06,0,0,1,2.65,1.53l6.6,11.44a3,3,0,0,1,.41,1.53Z"/><path class="cls-1" d="M1.15,55.16A1.15,1.15,0,0,1,0,54v-6.9A1.15,1.15,0,0,1,1.15,46H30.63A.77.77,0,0,0,31,44.54L2,27.81A3.06,3.06,0,0,1,.61,24.36l2.63-9.83a3.07,3.07,0,0,1,3-2.27H42.9v9.19H12.27a.77.77,0,0,0-.38,1.43l29,16.73a3.06,3.06,0,0,1,1.43,3.45l-2.63,9.83a3.07,3.07,0,0,1-3,2.27Z"/><path class="cls-1" d="M251.52,12.26a3.06,3.06,0,0,1,2.65,1.53l4,7V13.41a1.15,1.15,0,0,1,1.15-1.15h17.06A3.06,3.06,0,0,1,279,13.79l4,7a3.05,3.05,0,0,1,.41,1.53V54a1.15,1.15,0,0,1-1.15,1.15h-6.89A1.15,1.15,0,0,1,274.27,54V22.6a1.15,1.15,0,0,0-1.15-1.15H258.18V54A1.15,1.15,0,0,1,257,55.16h-6.9A1.15,1.15,0,0,1,249,54V22.6a1.15,1.15,0,0,0-1.15-1.15H234a1.15,1.15,0,0,0-1.15,1.15V54a1.15,1.15,0,0,1-1.15,1.15h-6.9A1.15,1.15,0,0,1,223.71,54V13.41a1.15,1.15,0,0,1,1.15-1.15h6.9a1.15,1.15,0,0,1,1.15,1.15v2.12a.77.77,0,0,0,1.15.66l6.1-3.52a3,3,0,0,1,1.53-.41Z"/></g></g></svg>