<?xml version="1.0" encoding="utf-8"?>
<!-- Generator: Adobe Illustrator 23.0.2, SVG Export Plug-In . SVG Version: 6.00 Build 0)  -->
<svg version="1.1" id="logo" xmlns="http://www.w3.org/2000/svg" xmlns:xlink="http://www.w3.org/1999/xlink" x="0px" y="0px"
	 width="520px" height="64px" viewBox="0 0 520 64" style="enable-background:new 0 0 520 64;" xml:space="preserve">
<style type="text/css">
	.st0{fill:#FFFFFF;}
</style>
<g>
	<path class="st0" d="M22.7,52.2v-32H10v-9.3h35.2v9.3H32.5v32H22.7z"/>
	<path class="st0" d="M60.5,20.2v6.2h11.9v8.7H60.5v7.6h17.8v9.4H50.7V10.8h27v9.3H60.5z"/>
	<path class="st0" d="M90.7,52.2H80.7l15.5-42h9.7l16.1,42h-10.7l-3.7-10.4h-13L90.7,52.2z M100.9,23.9l-3.6,10h7.3L100.9,23.9z"/>
	<path class="st0" d="M131.6,52.2v-32h-12.7v-9.3h35.2v9.3h-12.7v32H131.6z"/>
	<path class="st0" d="M169.3,20.2v6.2h11.9v8.7h-11.9v7.6h17.8v9.4h-27.5V10.8h27v9.3H169.3z"/>
	<path class="st0" d="M213.8,52.2l-10.3-18h-0.1v18h-9.8V10.8h13c9.9,0,14.9,5.1,14.9,12c0,6.2-4.6,10.3-9.2,11.2l12.2,18.1H213.8z
		 M203.4,26.7h4.2c2.3,0,3.8-1,3.8-3.4s-1.5-3.6-3.7-3.6h-4.2V26.7z"/>
	<path class="st0" d="M256.8,23.3c-1.5-1.7-4-3.9-8.7-3.9c-4.6,0-10.2,2.9-10.2,12c0,9.1,5.4,12.3,10.8,12.3c3.7,0,7-1.4,8.7-3.5
		l5.8,6.2c-3.3,4.3-8.5,6.7-15.6,6.7c-11.7,0-20.3-8.6-20.3-21.5c0-12.8,9-21.5,20.6-21.5c7.1,0,11.7,2.1,15.9,8.1L256.8,23.3z"/>
	<path class="st0" d="M279.3,20.2v6.2h11.9v8.7h-11.9v7.6H297v9.4h-27.5V10.8h27v9.3H279.3z"/>
	<path class="st0" d="M303.6,52.2V10.8h9.3l17.5,26.3V10.8h9.3v41.3h-10.8l-15.9-23.6v23.6H303.6z"/>
	<path class="st0" d="M357.8,52.2v-32H345v-9.3h35.2v9.3h-12.7v32H357.8z"/>
	<path class="st0" d="M406.3,52.2l-10.3-18H396v18h-9.8V10.8h13c9.9,0,14.9,5.1,14.9,12c0,6.2-4.6,10.3-9.2,11.2l12.2,18.1H406.3z
		 M396,26.7h4.2c2.3,0,3.8-1,3.8-3.4s-1.5-3.6-3.7-3.6H396V26.7z"/>
	<path class="st0" d="M431,10.8v23c0,5.9,1.7,10.1,7.7,10.1c5.9,0,7.9-4.2,7.9-9.6V10.8h9.3v25c0,13.7-8.5,17.2-17.3,17.2
		c-8.5,0-17.4-3.6-17.4-17.6V10.8H431z"/>
	<path class="st0" d="M510,10.8v41.4h-9.6V30.9l-10.2,21.3h-5.6l-10.9-21.3v21.3h-9.3V10.8h11.2l11.8,25.8l11.1-25.8L510,10.8z"/>
</g>
</svg>
