<svg width="1286" height="206" viewBox="0 0 1286 206" fill="none" xmlns="http://www.w3.org/2000/svg">
<path d="M290.533 103.136V29.1177L260.617 11.8383H168.03V192.37H193.82V120.415H232.763L273.512 192.37H302.139L260.617 120.415L290.533 103.136ZM193.82 97.204V35.0495H264.743V97.204H193.82Z" fill="#fff"/>
<path d="M357.588 11.8383H331.798V192.37H357.588V11.8383Z" fill="#fff"/>
<path d="M484.734 162.453H484.218L430.059 11.8383H393.694V192.37H418.195V45.3656H418.711L471.581 192.37H497.371L550.499 45.3656H551.015V192.37H575.516V11.8383H539.152L484.734 162.453Z" fill="#fff"/>
<path d="M718.91 10.5488L688.993 27.8283V176.38L718.91 193.66H794.475L824.392 176.38V27.8283L794.475 10.5488H718.91ZM798.602 170.448H714.783V33.7601H798.602V170.448Z" fill="#fff"/>
<path d="M977.844 148.269H977.328L883.967 11.8383H860.498V192.37H886.288V55.9396H886.804L980.165 192.37H1003.63V11.8383H977.844V148.269Z" fill="#fff"/>
<path d="M1285.91 101.739L1066.26 0.0822754L1112.68 104.103L1067.34 205.33L1285.91 101.739Z" fill="#fff"/>
<path d="M0.908669 35.3291H59.8824V192.37H85.6727V35.3291H142.325V11.688H0.908669V35.3291Z" fill="#fff"/>
</svg>
